<?xml version="1.0" encoding="UTF-8" standalone="no"?>
<!DOCTYPE svg PUBLIC "-//W3C//DTD SVG 1.1//EN"
 "http://www.w3.org/Graphics/SVG/1.1/DTD/svg11.dtd">
<!-- Generated by graphviz version 3.0.0 (20220226.1711)
 -->
<!-- Title: lib/platform/darwin/djinni&#45;generated/objc/include/MyDjinniLibrary/MyDjinniLibrary.h Pages: 1 -->
<svg width="209pt" height="173pt"
 viewBox="0.00 0.00 209.00 173.00" xmlns="http://www.w3.org/2000/svg" xmlns:xlink="http://www.w3.org/1999/xlink">
<g id="graph0" class="graph" transform="scale(1 1) rotate(0) translate(4 169)">
<title>lib/platform/darwin/djinni&#45;generated/objc/include/MyDjinniLibrary/MyDjinniLibrary.h</title>
<!-- Node1 -->
<g id="node1" class="node">
<title>Node1</title>
<g id="a_node1"><a xlink:title=" ">
<polygon fill="#bfbfbf" stroke="black" points="1.5,-112.5 1.5,-164.5 122.5,-164.5 122.5,-112.5 1.5,-112.5"/>
<text text-anchor="start" x="9.5" y="-152.5" font-family="Helvetica,sans-Serif" font-size="10.00">lib/platform/darwin</text>
<text text-anchor="start" x="9.5" y="-141.5" font-family="Helvetica,sans-Serif" font-size="10.00">/djinni&#45;generated/objc</text>
<text text-anchor="start" x="9.5" y="-130.5" font-family="Helvetica,sans-Serif" font-size="10.00">/include/MyDjinniLibrary</text>
<text text-anchor="middle" x="62" y="-119.5" font-family="Helvetica,sans-Serif" font-size="10.00">/MyDjinniLibrary.h</text>
</a>
</g>
</g>
<!-- Node2 -->
<g id="node2" class="node">
<title>Node2</title>
<g id="a_node2"><a xlink:title=" ">
<polygon fill="none" stroke="#bfbfbf" points="0,-0.5 0,-19.5 124,-19.5 124,-0.5 0,-0.5"/>
<text text-anchor="middle" x="62" y="-7.5" font-family="Helvetica,sans-Serif" font-size="10.00">Foundation/Foundation.h</text>
</a>
</g>
</g>
<!-- Node1&#45;&gt;Node2 -->
<g id="edge1" class="edge">
<title>Node1&#45;&gt;Node2</title>
<path fill="none" stroke="midnightblue" d="M37.48,-112.42C28.95,-102.02 20.42,-89.28 16,-76 13.19,-67.57 12.55,-64.19 16,-56 21.03,-44.05 30.94,-33.69 40.29,-25.93"/>
<polygon fill="midnightblue" stroke="midnightblue" points="42.44,-28.69 48.21,-19.81 38.16,-23.15 42.44,-28.69"/>
</g>
<!-- Node3 -->
<g id="node3" class="node">
<title>Node3</title>
<g id="a_node3"><a xlink:href="_m_d_l_native_8h.html" target="_top" xlink:title=" ">
<polygon fill="none" stroke="black" points="25,-56.5 25,-75.5 99,-75.5 99,-56.5 25,-56.5"/>
<text text-anchor="middle" x="62" y="-63.5" font-family="Helvetica,sans-Serif" font-size="10.00">MDLNative.h</text>
</a>
</g>
</g>
<!-- Node1&#45;&gt;Node3 -->
<g id="edge2" class="edge">
<title>Node1&#45;&gt;Node3</title>
<path fill="none" stroke="midnightblue" d="M62,-112.45C62,-103.73 62,-94.1 62,-85.96"/>
<polygon fill="midnightblue" stroke="midnightblue" points="65.5,-85.7 62,-75.7 58.5,-85.7 65.5,-85.7"/>
</g>
<!-- Node4 -->
<g id="node4" class="node">
<title>Node4</title>
<g id="a_node4"><a xlink:href="_m_d_l_example_8h.html" target="_top" xlink:title=" ">
<polygon fill="none" stroke="black" points="117,-56.5 117,-75.5 201,-75.5 201,-56.5 117,-56.5"/>
<text text-anchor="middle" x="159" y="-63.5" font-family="Helvetica,sans-Serif" font-size="10.00">MDLExample.h</text>
</a>
</g>
</g>
<!-- Node1&#45;&gt;Node4 -->
<g id="edge4" class="edge">
<title>Node1&#45;&gt;Node4</title>
<path fill="none" stroke="midnightblue" d="M96.47,-112.45C110.67,-102.13 126.62,-90.53 138.86,-81.64"/>
<polygon fill="midnightblue" stroke="midnightblue" points="141,-84.41 147.04,-75.7 136.89,-78.74 141,-84.41"/>
</g>
<!-- Node3&#45;&gt;Node2 -->
<g id="edge3" class="edge">
<title>Node3&#45;&gt;Node2</title>
<path fill="none" stroke="midnightblue" d="M62,-56.08C62,-49.01 62,-38.86 62,-29.99"/>
<polygon fill="midnightblue" stroke="midnightblue" points="65.5,-29.75 62,-19.75 58.5,-29.75 65.5,-29.75"/>
</g>
<!-- Node4&#45;&gt;Node2 -->
<g id="edge5" class="edge">
<title>Node4&#45;&gt;Node2</title>
<path fill="none" stroke="midnightblue" d="M143.42,-56.32C128,-47.74 104.19,-34.49 86.29,-24.52"/>
<polygon fill="midnightblue" stroke="midnightblue" points="87.99,-21.46 77.55,-19.65 84.58,-27.58 87.99,-21.46"/>
</g>
</g>
</svg>
