<?xml version="1.0" encoding="UTF-8" standalone="no"?>
<!DOCTYPE svg PUBLIC "-//W3C//DTD SVG 1.1//EN"
 "http://www.w3.org/Graphics/SVG/1.1/DTD/svg11.dtd">
<!-- Generated by graphviz version 2.47.3 (20210619.1520)
 -->
<!-- Title: MyDjinniLibrary Pages: 1 -->
<svg width="1204pt" height="279pt"
 viewBox="0.00 0.00 1204.24 279.04" xmlns="http://www.w3.org/2000/svg" xmlns:xlink="http://www.w3.org/1999/xlink">
<g id="graph0" class="graph" transform="scale(1 1) rotate(0) translate(4 275.04)">
<title>MyDjinniLibrary</title>
<polygon fill="white" stroke="transparent" points="-4,4 -4,-275.04 1200.24,-275.04 1200.24,4 -4,4"/>
<g id="clust1" class="cluster">
<title>clusterLegend</title>
<polygon fill="none" stroke="black" points="8,-8 8,-263.04 542,-263.04 542,-8 8,-8"/>
<text text-anchor="middle" x="275" y="-247.84" font-family="Times,serif" font-size="14.00">Legend</text>
</g>
<!-- legendNode0 -->
<g id="node1" class="node">
<title>legendNode0</title>
<polygon fill="none" stroke="black" points="288.24,-196.09 291.04,-196.19 293.82,-196.34 296.55,-196.54 299.24,-196.78 301.86,-197.07 304.41,-197.41 306.87,-197.79 309.25,-198.22 311.52,-198.69 313.69,-199.21 315.74,-199.76 317.66,-200.35 319.46,-200.98 321.12,-201.65 322.65,-202.35 324.03,-203.08 325.26,-203.85 326.35,-204.64 327.28,-205.45 328.07,-206.29 328.7,-207.15 329.19,-208.03 329.53,-208.93 329.73,-209.84 329.78,-210.76 329.69,-211.69 329.47,-212.63 329.12,-213.57 328.64,-214.52 328.04,-215.46 327.33,-216.4 326.51,-217.33 325.58,-218.25 324.56,-219.16 323.45,-220.06 322.25,-220.94 320.98,-221.8 319.63,-222.64 318.21,-223.45 316.74,-224.24 315.21,-225.01 313.63,-225.74 312.01,-226.44 310.35,-227.11 308.65,-227.74 306.92,-228.33 305.17,-228.88 303.39,-229.4 301.6,-229.87 299.78,-230.3 297.95,-230.68 296.12,-231.02 294.27,-231.31 292.41,-231.55 290.55,-231.75 288.68,-231.9 286.81,-232 284.94,-232.04 283.06,-232.04 281.19,-232 279.32,-231.9 277.45,-231.75 275.59,-231.55 273.73,-231.31 271.88,-231.02 270.05,-230.68 268.22,-230.3 266.4,-229.87 264.61,-229.4 262.83,-228.88 261.08,-228.33 259.35,-227.74 257.65,-227.11 255.99,-226.44 254.37,-225.74 252.79,-225.01 251.26,-224.24 249.79,-223.45 248.37,-222.64 247.02,-221.8 245.75,-220.94 244.55,-220.06 243.44,-219.16 242.42,-218.25 241.49,-217.33 240.67,-216.4 239.96,-215.46 239.36,-214.52 238.88,-213.57 238.53,-212.63 238.31,-211.69 238.22,-210.76 238.27,-209.84 238.47,-208.93 238.81,-208.03 239.3,-207.15 239.93,-206.29 240.72,-205.45 241.65,-204.64 242.74,-203.85 243.97,-203.08 245.35,-202.35 246.88,-201.65 248.54,-200.98 250.34,-200.35 252.26,-199.76 254.31,-199.21 256.48,-198.69 258.75,-198.22 261.13,-197.79 263.59,-197.41 266.14,-197.07 268.76,-196.78 271.45,-196.54 274.18,-196.34 276.96,-196.19 279.76,-196.09 282.59,-196.04 285.41,-196.04 288.24,-196.09"/>
<text text-anchor="middle" x="284" y="-210.94" font-family="Times,serif" font-size="12.00">Executable</text>
</g>
<!-- legendNode1 -->
<g id="node2" class="node">
<title>legendNode1</title>
<polygon fill="none" stroke="black" points="126.11,-121.57 126.11,-136.48 93.83,-147.02 48.17,-147.02 15.89,-136.48 15.89,-121.57 48.17,-111.02 93.83,-111.02 126.11,-121.57"/>
<text text-anchor="middle" x="71" y="-125.92" font-family="Times,serif" font-size="12.00">Static Library</text>
</g>
<!-- legendNode0&#45;&gt;legendNode1 -->
<g id="edge1" class="edge">
<title>legendNode0&#45;&gt;legendNode1</title>
<path fill="none" stroke="black" d="M250.72,-200.07C214.11,-185.8 155.12,-162.81 114.78,-147.09"/>
<polygon fill="black" stroke="black" points="116.05,-143.82 105.46,-143.45 113.51,-150.35 116.05,-143.82"/>
</g>
<!-- legendNode2 -->
<g id="node3" class="node">
<title>legendNode2</title>
<polygon fill="none" stroke="black" points="267.12,-121.57 267.12,-136.48 232.49,-147.02 183.51,-147.02 148.88,-136.48 148.88,-121.57 183.51,-111.02 232.49,-111.02 267.12,-121.57"/>
<polygon fill="none" stroke="black" points="271.1,-118.6 271.1,-139.44 233.08,-151.02 182.92,-151.02 144.9,-139.44 144.9,-118.6 182.92,-107.02 233.08,-107.02 271.1,-118.6"/>
<text text-anchor="middle" x="208" y="-125.92" font-family="Times,serif" font-size="12.00">Shared Library</text>
</g>
<!-- legendNode0&#45;&gt;legendNode2 -->
<g id="edge2" class="edge">
<title>legendNode0&#45;&gt;legendNode2</title>
<path fill="none" stroke="black" d="M268.98,-196.64C259.1,-185.84 245.88,-171.41 234.29,-158.74"/>
<polygon fill="black" stroke="black" points="236.65,-156.14 227.32,-151.12 231.49,-160.86 236.65,-156.14"/>
</g>
<!-- legendNode3 -->
<g id="node4" class="node">
<title>legendNode3</title>
<polygon fill="none" stroke="black" points="420.94,-121.57 420.94,-136.48 384.66,-147.02 333.34,-147.02 297.06,-136.48 297.06,-121.57 333.34,-111.02 384.66,-111.02 420.94,-121.57"/>
<polygon fill="none" stroke="black" points="424.93,-118.56 424.93,-139.48 385.22,-151.02 332.78,-151.02 293.07,-139.48 293.07,-118.56 332.78,-107.02 385.22,-107.02 424.93,-118.56"/>
<polygon fill="none" stroke="black" points="428.93,-115.56 428.93,-142.49 385.79,-155.02 332.21,-155.02 289.07,-142.49 289.07,-115.56 332.21,-103.02 385.79,-103.02 428.93,-115.56"/>
<text text-anchor="middle" x="359" y="-125.92" font-family="Times,serif" font-size="12.00">Module Library</text>
</g>
<!-- legendNode0&#45;&gt;legendNode3 -->
<!-- legendNode7 -->
<g id="node8" class="node">
<title>legendNode7</title>
<polygon fill="none" stroke="black" points="533.5,-147.02 446.5,-147.02 446.5,-111.02 533.5,-111.02 533.5,-147.02"/>
<text text-anchor="middle" x="490" y="-125.92" font-family="Times,serif" font-size="12.00">Custom Target</text>
</g>
<!-- legendNode0&#45;&gt;legendNode7 -->
<!-- legendNode4 -->
<g id="node5" class="node">
<title>legendNode4</title>
<polygon fill="none" stroke="black" points="165.64,-39.56 91,-52 16.36,-39.56 44.87,-19.44 137.13,-19.44 165.64,-39.56"/>
<text text-anchor="middle" x="91" y="-30.9" font-family="Times,serif" font-size="12.00">Interface Library</text>
</g>
<!-- legendNode1&#45;&gt;legendNode4 -->
<g id="edge4" class="edge">
<title>legendNode1&#45;&gt;legendNode4</title>
<path fill="none" stroke="black" stroke-dasharray="5,2" d="M74.67,-110.96C77.65,-97.11 81.9,-77.33 85.32,-61.43"/>
<polygon fill="black" stroke="black" points="88.74,-62.15 87.42,-51.64 81.9,-60.68 88.74,-62.15"/>
<text text-anchor="middle" x="109" y="-73.8" font-family="Times,serif" font-size="14.00">Interface</text>
</g>
<!-- legendNode5 -->
<g id="node6" class="node">
<title>legendNode5</title>
<polygon fill="none" stroke="black" points="306.68,-34 275.84,-52 214.16,-52 183.32,-34 214.16,-16 275.84,-16 306.68,-34"/>
<text text-anchor="middle" x="245" y="-30.9" font-family="Times,serif" font-size="12.00">Object Library</text>
</g>
<!-- legendNode2&#45;&gt;legendNode5 -->
<g id="edge5" class="edge">
<title>legendNode2&#45;&gt;legendNode5</title>
<path fill="none" stroke="black" stroke-dasharray="1,5" d="M216.4,-106.91C221.73,-93.5 228.68,-76.02 234.4,-61.65"/>
<polygon fill="black" stroke="black" points="237.68,-62.87 238.12,-52.29 231.18,-60.29 237.68,-62.87"/>
<text text-anchor="middle" x="251" y="-73.8" font-family="Times,serif" font-size="14.00">Private</text>
</g>
<!-- legendNode6 -->
<g id="node7" class="node">
<title>legendNode6</title>
<polygon fill="none" stroke="black" points="465.25,-29.99 451.34,-45.22 395,-52 338.66,-45.22 324.75,-29.99 363.74,-17.78 426.26,-17.78 465.25,-29.99"/>
<text text-anchor="middle" x="395" y="-30.9" font-family="Times,serif" font-size="12.00">Unknown Library</text>
</g>
<!-- legendNode3&#45;&gt;legendNode6 -->
<g id="edge6" class="edge">
<title>legendNode3&#45;&gt;legendNode6</title>
<path fill="none" stroke="black" d="M368.84,-102.6C373.88,-89.57 380.01,-73.74 385.07,-60.67"/>
<polygon fill="black" stroke="black" points="388.34,-61.9 388.69,-51.31 381.81,-59.37 388.34,-61.9"/>
</g>
<!-- node0 -->
<g id="node9" class="node">
<title>node0</title>
<polygon fill="none" stroke="black" points="866.75,-206.59 866.75,-221.5 827.65,-232.04 772.35,-232.04 733.25,-221.5 733.25,-206.59 772.35,-196.04 827.65,-196.04 866.75,-206.59"/>
<polygon fill="none" stroke="black" points="870.76,-203.53 870.76,-224.56 828.18,-236.04 771.82,-236.04 729.24,-224.56 729.24,-203.53 771.82,-192.04 828.18,-192.04 870.76,-203.53"/>
<text text-anchor="middle" x="800" y="-210.94" font-family="Times,serif" font-size="12.00">MyDjinniLibrary</text>
</g>
<!-- node1 -->
<g id="node10" class="node">
<title>node1</title>
<polygon fill="none" stroke="black" points="1039.91,-121.57 1039.91,-136.48 991.93,-147.02 924.07,-147.02 876.09,-136.48 876.09,-121.57 924.07,-111.02 991.93,-111.02 1039.91,-121.57"/>
<text text-anchor="middle" x="958" y="-125.92" font-family="Times,serif" font-size="12.00">MyDjinniLibraryCore</text>
</g>
<!-- node0&#45;&gt;node1 -->
<g id="edge8" class="edge">
<title>node0&#45;&gt;node1</title>
<path fill="none" stroke="black" stroke-dasharray="1,5" d="M836.25,-194C860.19,-181.42 891.62,-164.9 916.55,-151.8"/>
<polygon fill="black" stroke="black" points="918.19,-154.9 925.41,-147.15 914.93,-148.7 918.19,-154.9"/>
</g>
<!-- node2 -->
<g id="node11" class="node">
<title>node2</title>
<polygon fill="none" stroke="black" points="858.15,-118.23 858.15,-139.81 768.44,-155.07 641.56,-155.07 551.85,-139.81 551.85,-118.23 641.56,-102.98 768.44,-102.98 858.15,-118.23"/>
<text text-anchor="middle" x="705" y="-132.42" font-family="Times,serif" font-size="12.00">djinni_support_lib</text>
<text text-anchor="middle" x="705" y="-119.42" font-family="Times,serif" font-size="12.00">(djinni&#45;support&#45;lib::djinni&#45;support&#45;lib)</text>
</g>
<!-- node0&#45;&gt;node2 -->
<g id="edge10" class="edge">
<title>node0&#45;&gt;node2</title>
<path fill="none" stroke="black" stroke-dasharray="1,5" d="M775.54,-191.66C765.17,-182.61 752.88,-171.86 741.48,-161.9"/>
<polygon fill="black" stroke="black" points="743.6,-159.11 733.77,-155.16 739,-164.38 743.6,-159.11"/>
</g>
<!-- node3 -->
<g id="node12" class="node">
<title>node3</title>
<polygon fill="none" stroke="black" points="794.51,-29.99 776.78,-45.22 705,-52 633.22,-45.22 615.49,-29.99 665.16,-17.78 744.84,-17.78 794.51,-29.99"/>
<text text-anchor="middle" x="705" y="-30.9" font-family="Times,serif" font-size="12.00">&#45;framework Foundation</text>
</g>
<!-- node2&#45;&gt;node3 -->
<g id="edge9" class="edge">
<title>node2&#45;&gt;node3</title>
<path fill="none" stroke="black" d="M705,-102.6C705,-90.08 705,-74.97 705,-62.21"/>
<polygon fill="black" stroke="black" points="708.5,-62.16 705,-52.16 701.5,-62.16 708.5,-62.16"/>
</g>
<!-- node4 -->
<g id="node13" class="node">
<title>node4</title>
<polygon fill="none" stroke="black" points="1081.3,-196.09 1086.13,-196.19 1090.91,-196.34 1095.62,-196.54 1100.24,-196.78 1104.75,-197.07 1109.14,-197.41 1113.39,-197.79 1117.48,-198.22 1121.4,-198.69 1125.13,-199.21 1128.66,-199.76 1131.97,-200.35 1135.07,-200.98 1137.93,-201.65 1140.55,-202.35 1142.93,-203.08 1145.05,-203.85 1146.92,-204.64 1148.53,-205.45 1149.89,-206.29 1150.98,-207.15 1151.82,-208.03 1152.41,-208.93 1152.74,-209.84 1152.84,-210.76 1152.69,-211.69 1152.3,-212.63 1151.7,-213.57 1150.88,-214.52 1149.85,-215.46 1148.62,-216.4 1147.2,-217.33 1145.61,-218.25 1143.85,-219.16 1141.93,-220.06 1139.87,-220.94 1137.68,-221.8 1135.36,-222.64 1132.92,-223.45 1130.38,-224.24 1127.75,-225.01 1125.03,-225.74 1122.24,-226.44 1119.37,-227.11 1116.45,-227.74 1113.48,-228.33 1110.46,-228.88 1107.4,-229.4 1104.3,-229.87 1101.18,-230.3 1098.03,-230.68 1094.86,-231.02 1091.68,-231.31 1088.48,-231.55 1085.27,-231.75 1082.06,-231.9 1078.84,-232 1075.61,-232.04 1072.39,-232.04 1069.16,-232 1065.94,-231.9 1062.73,-231.75 1059.52,-231.55 1056.32,-231.31 1053.14,-231.02 1049.97,-230.68 1046.82,-230.3 1043.7,-229.87 1040.6,-229.4 1037.54,-228.88 1034.52,-228.33 1031.55,-227.74 1028.63,-227.11 1025.76,-226.44 1022.97,-225.74 1020.25,-225.01 1017.62,-224.24 1015.08,-223.45 1012.64,-222.64 1010.32,-221.8 1008.13,-220.94 1006.07,-220.06 1004.15,-219.16 1002.39,-218.25 1000.8,-217.33 999.38,-216.4 998.15,-215.46 997.12,-214.52 996.3,-213.57 995.7,-212.63 995.31,-211.69 995.16,-210.76 995.26,-209.84 995.59,-208.93 996.18,-208.03 997.02,-207.15 998.11,-206.29 999.47,-205.45 1001.08,-204.64 1002.95,-203.85 1005.07,-203.08 1007.45,-202.35 1010.07,-201.65 1012.93,-200.98 1016.03,-200.35 1019.34,-199.76 1022.87,-199.21 1026.6,-198.69 1030.52,-198.22 1034.61,-197.79 1038.86,-197.41 1043.25,-197.07 1047.76,-196.78 1052.38,-196.54 1057.09,-196.34 1061.87,-196.19 1066.7,-196.09 1071.56,-196.04 1076.44,-196.04 1081.3,-196.09"/>
<text text-anchor="middle" x="1074" y="-210.94" font-family="Times,serif" font-size="12.00">MyDjinniLibraryTest</text>
</g>
<!-- node4&#45;&gt;node1 -->
<g id="edge12" class="edge">
<title>node4&#45;&gt;node1</title>
<path fill="none" stroke="black" stroke-dasharray="1,5" d="M1050.8,-196.44C1033.41,-184 1009.39,-166.8 990.15,-153.03"/>
<polygon fill="black" stroke="black" points="992.12,-150.14 981.95,-147.17 988.05,-155.83 992.12,-150.14"/>
</g>
<!-- node5 -->
<g id="node14" class="node">
<title>node5</title>
<polygon fill="none" stroke="black" points="1196.49,-134.58 1127,-147.02 1057.51,-134.58 1084.06,-114.46 1169.94,-114.46 1196.49,-134.58"/>
<text text-anchor="middle" x="1127" y="-125.92" font-family="Times,serif" font-size="12.00">Catch2::Catch2</text>
</g>
<!-- node4&#45;&gt;node5 -->
<g id="edge11" class="edge">
<title>node4&#45;&gt;node5</title>
<path fill="none" stroke="black" stroke-dasharray="1,5" d="M1084.98,-195.84C1092.67,-183.8 1103.04,-167.55 1111.56,-154.21"/>
<polygon fill="black" stroke="black" points="1114.67,-155.83 1117.1,-145.52 1108.77,-152.07 1114.67,-155.83"/>
</g>
</g>
</svg>
