<?xml version="1.0" encoding="UTF-8" standalone="no"?>
<!DOCTYPE svg PUBLIC "-//W3C//DTD SVG 1.1//EN" "http://www.w3.org/Graphics/SVG/1.1/DTD/svg11.dtd">
<svg width="100%" height="100%" viewBox="0 0 36 36" version="1.1" xmlns="http://www.w3.org/2000/svg" xmlns:xlink="http://www.w3.org/1999/xlink" xml:space="preserve" xmlns:serif="http://www.serif.com/" style="fill-rule:evenodd;clip-rule:evenodd;stroke-linejoin:round;stroke-miterlimit:2;">
    <g transform="matrix(0.0672897,0,0,0.0672897,-10.3626,-41.215)">
        <path d="M397.961,1147.5L174.722,1147.5C163.285,1147.5 154,1138.21 154,1126.78L154,633.222C154,621.785 163.285,612.5 174.722,612.5L668.278,612.5C679.715,612.5 689,621.785 689,633.222L689,926.71C636.741,952.118 588.942,968.45 554.439,957.734C546.473,955.246 538.175,953.98 529.829,953.98C502.179,953.965 444.049,953.965 417.093,953.965C402.782,953.966 388.86,958.628 377.435,967.246C324.007,1007.54 381.483,1082.26 470.689,1083.27C589.945,1084.62 626.469,1016.09 689,960.843L689,1126.78C689,1138.21 679.715,1147.5 668.278,1147.5L546.202,1147.5C547.132,1143.29 545.341,1138.93 541.702,1136.6C526.85,1127.17 515.935,1116.71 507.627,1102.76C503.3,1095.62 495.398,1091.43 487.06,1091.87C478.019,1092.31 468.979,1092.34 459.794,1091.97C451.827,1091.53 444.222,1095.33 439.786,1101.96C431.307,1114.51 418.859,1125.72 402.3,1136.56C398.703,1138.94 396.974,1143.31 397.961,1147.5ZM370.687,958.157C346.105,938.806 323.826,937.662 306.557,944.695C280.461,955.323 265.033,986.716 268.308,1011.98C269.947,1024.62 275.95,1035.74 286.591,1042.93C300.195,1052.12 323.224,1055.32 357.729,1041.21L348.155,1017.8C332.704,1024.12 320.55,1026.43 311.179,1025.42C304.538,1024.7 299.739,1022.21 296.864,1018.2C292.321,1011.88 292.259,1002.92 294.61,994.4C298.168,981.517 307.692,969.007 321.591,966.521C331.251,964.792 342.513,968.162 355.046,978.027L370.687,958.157ZM485.883,907.575C491.37,903.543 494.934,897.045 494.934,889.721C494.934,881.29 485.255,865.426 478.695,855.644C477.375,853.676 475.16,852.495 472.79,852.495C470.42,852.495 468.206,853.676 466.885,855.644C460.326,865.426 450.647,881.29 450.647,889.721C450.647,897.091 454.256,903.626 459.801,907.651C434.077,910.103 410.725,919.644 404.052,936.066C403.15,938.26 403.4,940.759 404.72,942.73C406.041,944.701 408.257,945.884 410.629,945.884C435.77,945.884 509.776,945.884 534.932,945.876C537.291,945.876 539.496,944.705 540.817,942.75C542.138,940.796 542.403,938.314 541.524,936.125C536.878,924.393 524.11,916.247 508.077,911.614C501.157,909.615 493.629,908.271 485.883,907.575Z" style="fill:#1982d2;"/>
    </g>
</svg>
