<?xml version="1.0" encoding="UTF-8" standalone="no"?>
<!DOCTYPE svg PUBLIC "-//W3C//DTD SVG 1.1//EN"
 "http://www.w3.org/Graphics/SVG/1.1/DTD/svg11.dtd">
<!-- Generated by graphviz version 2.49.3 (20211023.0002)
 -->
<!-- Title: lib/platform/windows/djinni&#45;generated/cppcli/src/Example.hpp Pages: 1 -->
<svg width="288pt" height="162pt"
 viewBox="0.00 0.00 287.50 162.00" xmlns="http://www.w3.org/2000/svg" xmlns:xlink="http://www.w3.org/1999/xlink">
<g id="graph0" class="graph" transform="scale(1 1) rotate(0) translate(4 158)">
<title>lib/platform/windows/djinni&#45;generated/cppcli/src/Example.hpp</title>
<!-- Node1 -->
<g id="node1" class="node">
<title>Node1</title>
<g id="a_node1"><a xlink:title=" ">
<polygon fill="#bfbfbf" stroke="black" points="136.5,-112.5 136.5,-153.5 252.5,-153.5 252.5,-112.5 136.5,-112.5"/>
<text text-anchor="start" x="144.5" y="-141.5" font-family="Helvetica,sans-Serif" font-size="10.00">lib/platform/windows</text>
<text text-anchor="start" x="144.5" y="-130.5" font-family="Helvetica,sans-Serif" font-size="10.00">/djinni&#45;generated/cppcli</text>
<text text-anchor="middle" x="194.5" y="-119.5" font-family="Helvetica,sans-Serif" font-size="10.00">/src/Example.hpp</text>
</a>
</g>
</g>
<!-- Node2 -->
<g id="node2" class="node">
<title>Node2</title>
<g id="a_node2"><a xlink:title=" ">
<polygon fill="none" stroke="#bfbfbf" points="0,-56.5 0,-75.5 145,-75.5 145,-56.5 0,-56.5"/>
<text text-anchor="middle" x="72.5" y="-63.5" font-family="Helvetica,sans-Serif" font-size="10.00">My/DjinniLibrary/example.hpp</text>
</a>
</g>
</g>
<!-- Node1&#45;&gt;Node2 -->
<g id="edge1" class="edge">
<title>Node1&#45;&gt;Node2</title>
<path fill="none" stroke="midnightblue" d="M157.9,-112.5C138.47,-102.15 115.1,-89.69 97.72,-80.43"/>
<polygon fill="midnightblue" stroke="midnightblue" points="99.21,-77.27 88.74,-75.65 95.92,-83.44 99.21,-77.27"/>
</g>
<!-- Node3 -->
<g id="node3" class="node">
<title>Node3</title>
<g id="a_node3"><a xlink:href="_native_8hpp.html" target="_top" xlink:title=" ">
<polygon fill="none" stroke="black" points="163.5,-56.5 163.5,-75.5 225.5,-75.5 225.5,-56.5 163.5,-56.5"/>
<text text-anchor="middle" x="194.5" y="-63.5" font-family="Helvetica,sans-Serif" font-size="10.00">Native.hpp</text>
</a>
</g>
</g>
<!-- Node1&#45;&gt;Node3 -->
<g id="edge2" class="edge">
<title>Node1&#45;&gt;Node3</title>
<path fill="none" stroke="midnightblue" d="M194.5,-112.5C194.5,-104.07 194.5,-94.24 194.5,-85.87"/>
<polygon fill="midnightblue" stroke="midnightblue" points="198,-85.65 194.5,-75.65 191,-85.65 198,-85.65"/>
</g>
<!-- Node5 -->
<g id="node5" class="node">
<title>Node5</title>
<g id="a_node5"><a xlink:title=" ">
<polygon fill="none" stroke="#bfbfbf" points="227.5,-0.5 227.5,-19.5 279.5,-19.5 279.5,-0.5 227.5,-0.5"/>
<text text-anchor="middle" x="253.5" y="-7.5" font-family="Helvetica,sans-Serif" font-size="10.00">memory</text>
</a>
</g>
</g>
<!-- Node1&#45;&gt;Node5 -->
<g id="edge5" class="edge">
<title>Node1&#45;&gt;Node5</title>
<path fill="none" stroke="midnightblue" d="M211.07,-112.3C219.05,-102.01 228.23,-88.9 234.5,-76 241.73,-61.13 246.75,-42.98 249.8,-29.65"/>
<polygon fill="midnightblue" stroke="midnightblue" points="253.25,-30.26 251.92,-19.75 246.41,-28.8 253.25,-30.26"/>
</g>
<!-- Node4 -->
<g id="node4" class="node">
<title>Node4</title>
<g id="a_node4"><a xlink:title=" ">
<polygon fill="none" stroke="#bfbfbf" points="76,-0.5 76,-19.5 209,-19.5 209,-0.5 76,-0.5"/>
<text text-anchor="middle" x="142.5" y="-7.5" font-family="Helvetica,sans-Serif" font-size="10.00">My/DjinniLibrary/native.hpp</text>
</a>
</g>
</g>
<!-- Node3&#45;&gt;Node4 -->
<g id="edge3" class="edge">
<title>Node3&#45;&gt;Node4</title>
<path fill="none" stroke="midnightblue" d="M185.91,-56.08C178.34,-48.22 167.12,-36.57 157.99,-27.08"/>
<polygon fill="midnightblue" stroke="midnightblue" points="160.38,-24.53 150.93,-19.75 155.34,-29.38 160.38,-24.53"/>
</g>
<!-- Node3&#45;&gt;Node5 -->
<g id="edge4" class="edge">
<title>Node3&#45;&gt;Node5</title>
<path fill="none" stroke="midnightblue" d="M203.98,-56.32C212.7,-48.34 225.84,-36.31 236.4,-26.65"/>
<polygon fill="midnightblue" stroke="midnightblue" points="238.83,-29.17 243.85,-19.83 234.11,-24 238.83,-29.17"/>
</g>
</g>
</svg>
