<?xml version="1.0" encoding="UTF-8" standalone="no"?>
<!DOCTYPE svg PUBLIC "-//W3C//DTD SVG 1.1//EN"
 "http://www.w3.org/Graphics/SVG/1.1/DTD/svg11.dtd">
<!-- Generated by graphviz version 2.47.3 (20210619.1520)
 -->
<!-- Title: lib/platform/windows/djinni&#45;generated/cppcli/src/Native.hpp Pages: 1 -->
<svg width="212pt" height="106pt"
 viewBox="0.00 0.00 211.50 106.00" xmlns="http://www.w3.org/2000/svg" xmlns:xlink="http://www.w3.org/1999/xlink">
<g id="graph0" class="graph" transform="scale(1 1) rotate(0) translate(4 102)">
<title>lib/platform/windows/djinni&#45;generated/cppcli/src/Native.hpp</title>
<!-- Node1 -->
<g id="node1" class="node">
<title>Node1</title>
<g id="a_node1"><a xlink:title=" ">
<polygon fill="#bfbfbf" stroke="black" points="63.5,-56.5 63.5,-97.5 179.5,-97.5 179.5,-56.5 63.5,-56.5"/>
<text text-anchor="start" x="71.5" y="-85.5" font-family="Helvetica,sans-Serif" font-size="10.00">lib/platform/windows</text>
<text text-anchor="start" x="71.5" y="-74.5" font-family="Helvetica,sans-Serif" font-size="10.00">/djinni&#45;generated/cppcli</text>
<text text-anchor="middle" x="121.5" y="-63.5" font-family="Helvetica,sans-Serif" font-size="10.00">/src/Native.hpp</text>
</a>
</g>
</g>
<!-- Node2 -->
<g id="node2" class="node">
<title>Node2</title>
<g id="a_node2"><a xlink:title=" ">
<polygon fill="none" stroke="#bfbfbf" points="0,-0.5 0,-19.5 133,-19.5 133,-0.5 0,-0.5"/>
<text text-anchor="middle" x="66.5" y="-7.5" font-family="Helvetica,sans-Serif" font-size="10.00">My/DjinniLibrary/native.hpp</text>
</a>
</g>
</g>
<!-- Node1&#45;&gt;Node2 -->
<g id="edge1" class="edge">
<title>Node1&#45;&gt;Node2</title>
<path fill="none" stroke="midnightblue" d="M105,-56.5C97.13,-47.2 87.83,-36.21 80.34,-27.36"/>
<polygon fill="midnightblue" stroke="midnightblue" points="82.95,-25.03 73.82,-19.65 77.61,-29.55 82.95,-25.03"/>
</g>
<!-- Node3 -->
<g id="node3" class="node">
<title>Node3</title>
<g id="a_node3"><a xlink:title=" ">
<polygon fill="none" stroke="#bfbfbf" points="151.5,-0.5 151.5,-19.5 203.5,-19.5 203.5,-0.5 151.5,-0.5"/>
<text text-anchor="middle" x="177.5" y="-7.5" font-family="Helvetica,sans-Serif" font-size="10.00">memory</text>
</a>
</g>
</g>
<!-- Node1&#45;&gt;Node3 -->
<g id="edge2" class="edge">
<title>Node1&#45;&gt;Node3</title>
<path fill="none" stroke="midnightblue" d="M138.3,-56.5C146.31,-47.2 155.78,-36.21 163.41,-27.36"/>
<polygon fill="midnightblue" stroke="midnightblue" points="166.17,-29.51 170.05,-19.65 160.87,-24.94 166.17,-29.51"/>
</g>
</g>
</svg>
